<?xml version="1.0" encoding="UTF-8" standalone="no"?>
<!-- Created with Inkscape (http://www.inkscape.org/) -->

<svg
   width="15.348486mm"
   height="13.957522mm"
   viewBox="0 0 15.348487 13.957522"
   version="1.1"
   id="svg327"
   inkscape:version="1.2.2 (732a01da63, 2022-12-09)"
   sodipodi:docname="a6.svg"
   xmlns:inkscape="http://www.inkscape.org/namespaces/inkscape"
   xmlns:sodipodi="http://sodipodi.sourceforge.net/DTD/sodipodi-0.dtd"
   xmlns="http://www.w3.org/2000/svg"
   xmlns:svg="http://www.w3.org/2000/svg">
  <sodipodi:namedview
     id="namedview329"
     pagecolor="#ffffff"
     bordercolor="#666666"
     borderopacity="1.0"
     inkscape:showpageshadow="2"
     inkscape:pageopacity="0.0"
     inkscape:pagecheckerboard="0"
     inkscape:deskcolor="#d1d1d1"
     inkscape:document-units="mm"
     showgrid="false"
     inkscape:zoom="8"
     inkscape:cx="7.5625"
     inkscape:cy="23.9375"
     inkscape:window-width="1920"
     inkscape:window-height="1010"
     inkscape:window-x="-6"
     inkscape:window-y="-6"
     inkscape:window-maximized="1"
     inkscape:current-layer="layer1" />
  <defs
     id="defs324" />
  <g
     inkscape:label="Layer 1"
     inkscape:groupmode="layer"
     id="layer1"
     transform="translate(-8.6185689,-18.009689)">
    <path
       id="path7328"
       style="font-size:13.2662px;line-height:1.25;font-family:ObelixPro;-inkscape-font-specification:ObelixPro;stroke-width:0.455124"
       d="m 19.715774,21.716404 c -0.04089,0.420909 -0.06814,0.726407 -0.08177,0.916495 l -0.06133,0.896129 1.53395,-0.224032 1.513497,-0.285132 0.143161,1.262727 0.184078,1.283094 c -1.008995,0.162932 -1.663483,0.264765 -1.963454,0.305498 -0.53177,0.09504 -1.00218,0.176511 -1.411232,0.244399 l -0.04089,1.690425 2.065719,-0.285132 2.045257,-0.285132 0.224983,1.670059 0.09931,1.798682 c -1.063529,0.06789 -2.256601,0.203666 -3.579205,0.407332 -1.336234,0.230821 -2.808814,0.515952 -4.417762,0.855395 -0.01363,-0.733196 0.07796,-1.93446 0.06434,-3.346541 l -0.04089,-3.279017 c -0.02726,-2.85132 -0.0477,-5.010176 -0.06133,-6.476569 l 3.661009,-0.427698 3.681471,-0.427697 c 0.20428,1.022211 0.235516,2.049109 0.262863,3.085889 -1.281548,0.379429 -2.586476,0.483859 -3.821776,0.620826 z M 8.6185689,31.939889 C 10.146786,28.046987 12.403809,23.495724 13.799347,18.894136 l 3.442588,-0.09676 c 0.260078,3.573546 0.932143,7.734093 2.016195,12.481644 l -3.294376,0.677086 -0.05121,-2.482466 -2.525788,0.206785 -0.953006,2.169767 z m 7.3285101,-4.589043 0.03547,-4.980558 c -1.096819,2.824792 -1.108534,3.573623 -2.059075,5.126412 z" />
  </g>
</svg>
