<?xml version="1.0" encoding="UTF-8" standalone="no"?>
<!-- Created with Inkscape (http://www.inkscape.org/) -->

<svg
   width="10.414mm"
   height="17.93881mm"
   viewBox="0 0 10.414 17.93881"
   version="1.1"
   id="svg327"
   inkscape:version="1.2.2 (732a01da63, 2022-12-09)"
   sodipodi:docname="00C7.svg"
   xmlns:inkscape="http://www.inkscape.org/namespaces/inkscape"
   xmlns:sodipodi="http://sodipodi.sourceforge.net/DTD/sodipodi-0.dtd"
   xmlns="http://www.w3.org/2000/svg"
   xmlns:svg="http://www.w3.org/2000/svg">
  <sodipodi:namedview
     id="namedview329"
     pagecolor="#ffffff"
     bordercolor="#666666"
     borderopacity="1.0"
     inkscape:showpageshadow="2"
     inkscape:pageopacity="0.0"
     inkscape:pagecheckerboard="0"
     inkscape:deskcolor="#d1d1d1"
     inkscape:document-units="mm"
     showgrid="false"
     inkscape:zoom="8"
     inkscape:cx="30.3125"
     inkscape:cy="41.6875"
     inkscape:window-width="1920"
     inkscape:window-height="1010"
     inkscape:window-x="-6"
     inkscape:window-y="-6"
     inkscape:window-maximized="1"
     inkscape:current-layer="layer1" />
  <defs
     id="defs324" />
  <g
     inkscape:label="Layer 1"
     inkscape:groupmode="layer"
     id="layer1"
     transform="translate(-11.085813,-14.028401)">
    <path
       id="path9827"
       style="font-size:12.7px;line-height:1.25;font-family:ObelixPro;-inkscape-font-specification:ObelixPro;text-align:center;text-anchor:middle;stroke-width:0.435701"
       d="M 16.718027 15.166316 C 15.946108 15.16499 15.221848 15.413039 14.544517 15.910457 C 13.789031 16.483583 13.182956 17.297606 12.727056 18.352685 C 12.271177 19.38171 12.03017 20.495207 12.004103 21.693566 C 11.991077 22.957052 12.251915 24.16208 12.785968 25.308333 C 13.293967 26.376432 13.971219 27.190455 14.817885 27.750561 C 15.210583 28.018053 15.6068 28.209917 16.00696 28.32572 C 15.786862 28.818673 15.570935 29.233782 15.573911 29.650703 L 16.098944 29.546834 C 16.364293 29.525634 16.598006 29.515311 16.799676 29.515311 C 17.261396 29.515311 17.555973 29.579144 17.683343 29.706514 C 17.773573 29.786124 17.832026 29.87353 17.858526 29.96903 C 17.879726 30.04333 17.863567 30.130706 17.810467 30.231546 C 17.704327 30.406656 17.542815 30.523513 17.325225 30.581913 C 17.288125 30.586913 17.256124 30.590181 17.229624 30.590181 C 17.144664 30.590181 17.094112 30.544988 17.078212 30.454789 C 17.057012 30.391099 17.057012 30.308615 17.078212 30.207775 L 15.494329 30.104422 C 15.510229 30.332632 15.539163 30.542275 15.581663 30.733325 C 15.645353 31.051754 15.756799 31.298708 15.916009 31.473848 C 16.181369 31.802887 16.507858 31.967358 16.895278 31.967358 C 17.479067 31.967358 18.054961 31.696334 18.622821 31.155004 C 18.88818 30.910874 19.081604 30.645777 19.203664 30.359187 C 19.384114 30.014217 19.421435 29.698548 19.315285 29.411958 C 19.148485 28.835286 18.514049 28.502743 17.391371 28.425455 C 17.451721 28.416997 17.512243 28.407249 17.572756 28.395483 C 18.653881 28.18707 19.637217 27.489986 20.522963 26.304654 L 18.823325 24.136311 C 17.7422 24.943904 16.856482 25.021691 16.166123 24.370405 C 15.579977 23.836359 15.254055 22.989794 15.188922 21.830509 C 15.162868 20.645177 15.449638 19.778774 16.048818 19.231701 C 16.739177 18.580422 17.644209 18.632795 18.764414 19.388281 L 19.683221 18.196622 L 20.581874 17.004447 C 19.448649 15.949374 18.341245 15.35042 17.260113 15.20714 C 17.076941 15.180274 16.896162 15.166622 16.718027 15.166316 z " />
  </g>
</svg>
