<?xml version="1.0" encoding="UTF-8" standalone="no"?>
<!-- Created with Inkscape (http://www.inkscape.org/) -->

<svg
   width="8.6494656mm"
   height="16.411287mm"
   viewBox="0 0 8.6494659 16.411287"
   version="1.1"
   id="svg327"
   inkscape:version="1.2.2 (732a01da63, 2022-12-09)"
   sodipodi:docname="00DF.svg"
   xmlns:inkscape="http://www.inkscape.org/namespaces/inkscape"
   xmlns:sodipodi="http://sodipodi.sourceforge.net/DTD/sodipodi-0.dtd"
   xmlns="http://www.w3.org/2000/svg"
   xmlns:svg="http://www.w3.org/2000/svg">
  <sodipodi:namedview
     id="namedview329"
     pagecolor="#ffffff"
     bordercolor="#666666"
     borderopacity="1.0"
     inkscape:showpageshadow="2"
     inkscape:pageopacity="0.0"
     inkscape:pagecheckerboard="0"
     inkscape:deskcolor="#d1d1d1"
     inkscape:document-units="mm"
     showgrid="false"
     inkscape:zoom="8"
     inkscape:cx="-5.1875"
     inkscape:cy="33.1875"
     inkscape:window-width="1920"
     inkscape:window-height="1010"
     inkscape:window-x="-6"
     inkscape:window-y="-6"
     inkscape:window-maximized="1"
     inkscape:current-layer="layer1" />
  <defs
     id="defs324" />
  <g
     inkscape:label="Layer 1"
     inkscape:groupmode="layer"
     id="layer1"
     transform="translate(-11.968079,-15.555922)">
    <path
       d="m 15.203712,25.63837 c 0.59918,0.0391 0.8674,-0.002 1.28422,-0.10597 0.59918,-0.18236 0.95087,-0.50149 1.05508,-0.95739 0.14328,-0.59918 -0.10421,-1.00949 -0.74246,-1.23092 -0.59918,-0.22143 -2.10952,-0.63005 -1.83301,-1.68152 0.24048,-0.91448 1.33947,-1.63943 1.55989,-2.08945 0.40498,-0.82683 0.0388,-1.3271 -0.3489,-1.41062 -1.57404,-0.0775 -1.29633,1.11466 -1.40977,4.04964 l 0.0732,9.31822 c -0.83036,0.0216 -1.70445,0.23215 -2.75753,0.43685 0.0521,-2.11016 0.0528,-7.84161 -0.09,-10.2253 v 4e-5 c -0.14329,-3.32154 0.28884,-4.43147 1.51561,-5.41216 2.04487,-1.35569 4.05713,-0.64632 4.97055,-0.0116 0.91343,0.63477 1.1143,1.30759 1.19245,2.18031 0.0651,0.98995 -0.42984,1.93431 -1.48492,2.83308 1.59006,0.43742 2.63023,2.14328 2.39674,3.61816 -0.0781,0.61221 -0.33215,1.15277 -0.762,1.6217 -0.9639,1.05507 -1.70638,1.59209 -3.25643,1.89168 -0.39533,0.0644 -0.72707,0.11883 -1.17974,0.14293 -0.0782,0.004 -0.0963,-2.96998 -0.18264,-2.96774"
       style="font-size:12.7px;line-height:1.25;font-family:ObelixPro;-inkscape-font-specification:ObelixPro;fill:#000000;fill-opacity:1;stroke-width:0.340823"
       id="path6649"
       sodipodi:nodetypes="ccccssccccccczcccccsc" />
  </g>
</svg>
