<?xml version="1.0" encoding="UTF-8" standalone="no"?>
<!-- Created with Inkscape (http://www.inkscape.org/) -->

<svg
   width="10.414mm"
   height="17.93881mm"
   viewBox="0 0 10.414 17.93881"
   version="1.1"
   id="svg327"
   inkscape:version="1.2.2 (732a01da63, 2022-12-09)"
   sodipodi:docname="i3.svg"
   xmlns:inkscape="http://www.inkscape.org/namespaces/inkscape"
   xmlns:sodipodi="http://sodipodi.sourceforge.net/DTD/sodipodi-0.dtd"
   xmlns="http://www.w3.org/2000/svg"
   xmlns:svg="http://www.w3.org/2000/svg">
  <sodipodi:namedview
     id="namedview329"
     pagecolor="#ffffff"
     bordercolor="#666666"
     borderopacity="1.0"
     inkscape:showpageshadow="2"
     inkscape:pageopacity="0.0"
     inkscape:pagecheckerboard="0"
     inkscape:deskcolor="#d1d1d1"
     inkscape:document-units="mm"
     showgrid="false"
     inkscape:zoom="5.6568543"
     inkscape:cx="26.781669"
     inkscape:cy="43.929009"
     inkscape:window-width="1920"
     inkscape:window-height="1010"
     inkscape:window-x="-6"
     inkscape:window-y="-6"
     inkscape:window-maximized="1"
     inkscape:current-layer="layer1" />
  <defs
     id="defs324" />
  <g
     inkscape:label="Layer 1"
     inkscape:groupmode="layer"
     id="layer1"
     transform="translate(-11.085813,-14.028401)">
    <g
       id="g5838"
       transform="translate(-92.467082,-1.9905187)"
       style="display:inline">
      <path
         id="ellipse5836"
         style="stroke-width:0.17447;stroke-linecap:round;stroke-linejoin:round;paint-order:markers stroke fill;stop-color:#000000"
         d="m 111.7804,18.825237 c 0,0.598734 -0.49835,1.084104 -1.11309,1.084104 -0.61474,0 -1.11309,-0.48537 -1.11309,-1.084104 0,-0.598735 0.49835,-1.084105 1.11309,-1.084104 0.61474,-1e-6 1.11309,0.485369 1.11309,1.084104 z m -3.81483,0.427246 c 0,0.598734 -0.49835,1.084104 -1.11309,1.084104 -0.61474,0 -1.11309,-0.48537 -1.11309,-1.084104 0,-0.598735 0.49835,-1.084105 1.11309,-1.084104 0.61474,-1e-6 1.11309,0.485369 1.11309,1.084104 z m -0.97378,2.435093 1.81707,-0.293077 1.778,-0.273538 c -0.23446,2.331589 -0.37123,4.500358 -0.4103,6.506307 -0.0391,2.005949 0.007,3.849077 0.13677,5.529385 l -1.64123,0.429846 -1.66077,0.371231 z"
         sodipodi:nodetypes="sssssssssscccscccc" />
    </g>
  </g>
</svg>
