<?xml version="1.0" encoding="UTF-8" standalone="no"?>
<!-- Created with Inkscape (http://www.inkscape.org/) -->

<svg
   width="10.414mm"
   height="17.93881mm"
   viewBox="0 0 10.414 17.93881"
   version="1.1"
   id="svg327"
   inkscape:version="1.2.2 (732a01da63, 2022-12-09)"
   sodipodi:docname="o3.svg"
   xmlns:inkscape="http://www.inkscape.org/namespaces/inkscape"
   xmlns:sodipodi="http://sodipodi.sourceforge.net/DTD/sodipodi-0.dtd"
   xmlns="http://www.w3.org/2000/svg"
   xmlns:svg="http://www.w3.org/2000/svg">
  <sodipodi:namedview
     id="namedview329"
     pagecolor="#ffffff"
     bordercolor="#666666"
     borderopacity="1.0"
     inkscape:showpageshadow="2"
     inkscape:pageopacity="0.0"
     inkscape:pagecheckerboard="0"
     inkscape:deskcolor="#d1d1d1"
     inkscape:document-units="mm"
     showgrid="false"
     inkscape:zoom="5.6568543"
     inkscape:cx="36.681164"
     inkscape:cy="54.00528"
     inkscape:window-width="1920"
     inkscape:window-height="1010"
     inkscape:window-x="-6"
     inkscape:window-y="-6"
     inkscape:window-maximized="1"
     inkscape:current-layer="layer1" />
  <defs
     id="defs324" />
  <g
     inkscape:label="Layer 1"
     inkscape:groupmode="layer"
     id="layer1"
     transform="translate(-11.085813,-14.028401)">
    <path
       id="path10718"
       style="font-size:12.7px;line-height:1.25;font-family:ObelixPro;-inkscape-font-specification:ObelixPro;text-align:center;text-anchor:middle;stroke-width:0.435701"
       d="m 12.533987,21.123366 c 1.00297,-1.563077 2.33159,-2.344616 3.98585,-2.344616 1.41979,0 2.59861,0.644769 3.53646,1.934308 0.52103,0.703385 0.87923,1.432821 1.07461,2.188308 0.19539,0.75549 0.28005,1.582615 0.254,2.481385 -0.0521,1.524 -0.50803,2.93077 -1.36769,4.22031 -1.016,1.5761 -2.34461,2.36415 -3.98584,2.36415 -1.44585,0 -2.63118,-0.65779 -3.556,-1.97338 -0.44287,-0.56011 -0.78154,-1.25047 -1.016,-2.07108 -0.20841,-0.80759 -0.29308,-1.65426 -0.254,-2.54 0.0782,-1.56308 0.52102,-2.982872 1.32861,-4.259385 z m 5.23631,2.227384 c -0.32564,-0.781539 -0.76851,-1.172308 -1.32862,-1.172308 -0.65128,0 -1.16579,0.488462 -1.54354,1.465385 -0.29959,0.742464 -0.48194,1.504464 -0.54707,2.286004 -0.013,0.37774 0.0391,0.72943 0.15631,1.05507 0.11723,0.49497 0.31261,0.85969 0.58615,1.09416 0.31261,0.28656 0.7099,0.42984 1.19185,0.42984 0.66431,0 1.16579,-0.29308 1.50446,-0.87923 0.27353,-0.49497 0.41681,-1.1202 0.42984,-1.87569 0.013,-0.83364 -0.13679,-1.63472 -0.44938,-2.403231 z m 1.53546,-6.334062 c 0,0.598734 -0.49835,1.084104 -1.11309,1.084104 -0.61474,0 -1.11309,-0.48537 -1.11309,-1.084104 0,-0.598735 0.49835,-1.084105 1.11309,-1.084104 0.61474,-1e-6 1.11309,0.485369 1.11309,1.084104 z m -3.81483,0.427246 c 0,0.598734 -0.49835,1.084104 -1.11309,1.084104 -0.61474,0 -1.11309,-0.48537 -1.11309,-1.084104 0,-0.598735 0.49835,-1.084105 1.11309,-1.084104 0.61474,-10e-7 1.11309,0.485369 1.11309,1.084104 z"
       sodipodi:nodetypes="cscsccscccccsccccscccssssssssss" />
  </g>
</svg>
