<?xml version="1.0" encoding="UTF-8" standalone="no"?>
<!-- Created with Inkscape (http://www.inkscape.org/) -->

<svg
   width="10.414mm"
   height="17.93881mm"
   viewBox="0 0 10.414 17.93881"
   version="1.1"
   id="svg327"
   inkscape:version="1.2.2 (732a01da63, 2022-12-09)"
   sodipodi:docname="u4.svg"
   xmlns:inkscape="http://www.inkscape.org/namespaces/inkscape"
   xmlns:sodipodi="http://sodipodi.sourceforge.net/DTD/sodipodi-0.dtd"
   xmlns="http://www.w3.org/2000/svg"
   xmlns:svg="http://www.w3.org/2000/svg">
  <sodipodi:namedview
     id="namedview329"
     pagecolor="#ffffff"
     bordercolor="#666666"
     borderopacity="1.0"
     inkscape:showpageshadow="2"
     inkscape:pageopacity="0.0"
     inkscape:pagecheckerboard="0"
     inkscape:deskcolor="#d1d1d1"
     inkscape:document-units="mm"
     showgrid="false"
     inkscape:zoom="8"
     inkscape:cx="18.1875"
     inkscape:cy="18.8125"
     inkscape:window-width="1920"
     inkscape:window-height="1010"
     inkscape:window-x="-6"
     inkscape:window-y="-6"
     inkscape:window-maximized="1"
     inkscape:current-layer="layer1" />
  <defs
     id="defs324" />
  <g
     inkscape:label="Layer 1"
     inkscape:groupmode="layer"
     id="layer1"
     transform="translate(-11.085813,-14.028401)">
    <path
       id="path10744"
       style="font-size:12.7px;line-height:1.25;font-family:ObelixPro;-inkscape-font-specification:ObelixPro;text-align:center;text-anchor:middle;stroke-width:0.435701"
       d="m 12.53221,18.98547 3.63415,0.29308 -0.62523,3.048 -0.54707,3.06754 q 0,0.21492 -0.13677,0.99646 -0.13677,0.70339 -0.13677,1.15277 0,1.38723 1.27,1.38723 0.89877,0 1.44584,-0.62523 0.46893,-0.52754 0.46893,-1.44585 l -0.84016,-8.10846 3.57554,0.21493 0.35169,4.318 0.31262,4.35707 q 0.15631,2.11016 -1.524,3.16523 -1.27,0.78154 -4.16169,1.1137 -2.69631,0.29307 -3.73185,-1.23093 -0.85969,-1.32861 -0.52754,-3.77092 z m 5.9482,-2.40313 -3.22879,-2.00094 -1.27413,0.99933 3.61566,2.42994 z" />
  </g>
</svg>
