<?xml version="1.0" encoding="UTF-8" standalone="no"?>
<!-- Created with Inkscape (http://www.inkscape.org/) -->

<svg
   width="10.414mm"
   height="17.93881mm"
   viewBox="0 0 10.414 17.93881"
   version="1.1"
   id="svg327"
   inkscape:version="1.2.2 (732a01da63, 2022-12-09)"
   sodipodi:docname="u1.svg"
   xmlns:inkscape="http://www.inkscape.org/namespaces/inkscape"
   xmlns:sodipodi="http://sodipodi.sourceforge.net/DTD/sodipodi-0.dtd"
   xmlns="http://www.w3.org/2000/svg"
   xmlns:svg="http://www.w3.org/2000/svg">
  <sodipodi:namedview
     id="namedview329"
     pagecolor="#ffffff"
     bordercolor="#666666"
     borderopacity="1.0"
     inkscape:showpageshadow="2"
     inkscape:pageopacity="0.0"
     inkscape:pagecheckerboard="0"
     inkscape:deskcolor="#d1d1d1"
     inkscape:document-units="mm"
     showgrid="false"
     inkscape:zoom="2.8284271"
     inkscape:cx="86.797357"
     inkscape:cy="53.209785"
     inkscape:window-width="1920"
     inkscape:window-height="1010"
     inkscape:window-x="-6"
     inkscape:window-y="-6"
     inkscape:window-maximized="1"
     inkscape:current-layer="layer1" />
  <defs
     id="defs324" />
  <g
     inkscape:label="Layer 1"
     inkscape:groupmode="layer"
     id="layer1"
     transform="translate(-11.085813,-14.028401)">
    <path
       id="path10723"
       style="font-size:12.7px;line-height:1.25;font-family:ObelixPro;-inkscape-font-specification:ObelixPro;text-align:center;text-anchor:middle;display:inline;stroke-width:0.435701"
       d="m 12.532215,18.985473 3.634153,0.29308 -0.62523,3.048 -0.547077,3.06754 q 0,0.21492 -0.13677,0.99646 -0.136769,0.70339 -0.136769,1.15277 0,1.38723 1.27,1.38723 0.898769,0 1.445846,-0.62523 0.468923,-0.52754 0.468923,-1.44585 l -0.840153,-8.10846 3.575538,0.21493 0.351692,4.318 0.312616,4.35707 q 0.156307,2.11016 -1.524,3.16523 -1.27,0.78154 -4.161693,1.1137 -2.696307,0.29307 -3.731846,-1.23093 -0.859692,-1.32861 -0.527538,-3.77092 z m 1.445483,-2.40311 3.22879,-2.00094 1.274133,0.99933 -3.615666,2.42995 z" />
  </g>
</svg>
