<?xml version="1.0" encoding="UTF-8" standalone="no"?>
<!-- Created with Inkscape (http://www.inkscape.org/) -->

<svg
   width="14.640196mm"
   height="13.795797mm"
   viewBox="0 0 14.640196 13.795797"
   version="1.1"
   id="svg327"
   inkscape:version="1.2.2 (732a01da63, 2022-12-09)"
   sodipodi:docname="o6.svg"
   xmlns:inkscape="http://www.inkscape.org/namespaces/inkscape"
   xmlns:sodipodi="http://sodipodi.sourceforge.net/DTD/sodipodi-0.dtd"
   xmlns="http://www.w3.org/2000/svg"
   xmlns:svg="http://www.w3.org/2000/svg">
  <sodipodi:namedview
     id="namedview329"
     pagecolor="#ffffff"
     bordercolor="#666666"
     borderopacity="1.0"
     inkscape:showpageshadow="2"
     inkscape:pageopacity="0.0"
     inkscape:pagecheckerboard="0"
     inkscape:deskcolor="#d1d1d1"
     inkscape:document-units="mm"
     showgrid="false"
     inkscape:zoom="2.8284271"
     inkscape:cx="30.935922"
     inkscape:cy="36.592776"
     inkscape:window-width="1920"
     inkscape:window-height="1010"
     inkscape:window-x="-6"
     inkscape:window-y="-6"
     inkscape:window-maximized="1"
     inkscape:current-layer="layer1" />
  <defs
     id="defs324" />
  <g
     inkscape:label="Layer 1"
     inkscape:groupmode="layer"
     id="layer1"
     transform="translate(-10.881584,-18.496785)">
    <path
       id="path7342"
       style="font-size:12.7px;line-height:1.25;font-family:ObelixPro;-inkscape-font-specification:ObelixPro;stroke-width:0.435701"
       d="m 23.38413,21.837862 c -0.63825,0.07815 -1.25046,0.149795 -1.83661,0.214923 -0.0391,0.403795 -0.0651,0.696872 -0.0782,0.879231 l -0.0586,0.859692 1.46538,-0.214923 1.44585,-0.273539 0.13677,1.211386 0.17584,1.23092 c -0.96389,0.15631 -1.58912,0.254 -1.87569,0.29308 -0.508,0.0912 -0.95738,0.16933 -1.34815,0.23446 l -0.0391,1.62169 1.97339,-0.27354 1.95384,-0.27353 0.21493,1.60215 0.008,1.78924 c -1.016,0.0651 -2.15574,0.19539 -3.41923,0.39077 -1.27651,0.22144 -2.68328,0.49498 -4.22031,0.82062 -0.013,-0.70339 0.16106,-1.9195 0.14799,-3.27417 l -0.0391,-3.14569 c -0.0261,-2.735385 -0.0456,-4.806463 -0.0586,-6.213232 l 3.49739,-0.410307 3.51692,-0.410308 0.21492,1.582615 0.21493,1.602154 c -0.70339,0.0521 -1.3677,0.104203 -1.99293,0.156308 z M 12.21945,21.448737 c 1.00298,-1.563077 2.3316,-2.344616 3.98585,-2.344616 0.5965,0 1.21978,0.09574 1.76526,0.221541 0.78856,0.181867 1.22737,0.965007 1.7712,1.712767 0.52103,0.703385 0.87923,1.432821 1.07462,2.188308 0.19538,0.75549 0.28005,1.582615 0.254,2.481385 -0.0521,1.524 -0.50803,2.93077 -1.3677,4.22031 -0.51461,0.79831 -1.01142,1.73591 -1.81283,2.02 -0.6534,0.23162 -1.36308,0.34415 -2.17301,0.34415 -1.44585,0 -2.63118,-0.65779 -3.556,-1.97338 -0.44287,-0.56011 -0.78154,-1.25047 -1.016,-2.07108 -0.20841,-0.80759 -0.29308,-1.65426 -0.254,-2.54 0.0781,-1.56308 0.52102,-2.982872 1.32861,-4.259385 z m 5.23631,2.227384 c -0.32564,-0.781539 -0.76851,-1.172308 -1.32861,-1.172308 -0.65129,0 -1.1658,0.488462 -1.54354,1.465385 -0.29959,0.742464 -0.48195,1.504464 -0.54708,2.286004 -0.013,0.37774 0.0391,0.72943 0.15631,1.05507 0.11723,0.49497 0.31261,0.85969 0.58615,1.09416 0.31262,0.28656 0.7099,0.42984 1.19185,0.42984 0.66431,0 1.16579,-0.29308 1.50446,-0.87923 0.27354,-0.49497 0.41682,-1.1202 0.42985,-1.87569 0.013,-0.83364 -0.1368,-1.63472 -0.44939,-2.403231 z" />
  </g>
</svg>
