<?xml version="1.0" encoding="UTF-8" standalone="no"?>
<!-- Created with Inkscape (http://www.inkscape.org/) -->

<svg
   width="10.414mm"
   height="17.93881mm"
   viewBox="0 0 10.414 17.93881"
   version="1.1"
   id="svg327"
   inkscape:version="1.2.2 (732a01da63, 2022-12-09)"
   sodipodi:docname="y1.svg"
   xmlns:inkscape="http://www.inkscape.org/namespaces/inkscape"
   xmlns:sodipodi="http://sodipodi.sourceforge.net/DTD/sodipodi-0.dtd"
   xmlns="http://www.w3.org/2000/svg"
   xmlns:svg="http://www.w3.org/2000/svg">
  <sodipodi:namedview
     id="namedview329"
     pagecolor="#ffffff"
     bordercolor="#666666"
     borderopacity="1.0"
     inkscape:showpageshadow="2"
     inkscape:pageopacity="0.0"
     inkscape:pagecheckerboard="0"
     inkscape:deskcolor="#d1d1d1"
     inkscape:document-units="mm"
     showgrid="false"
     inkscape:zoom="8"
     inkscape:cx="18.1875"
     inkscape:cy="38.8125"
     inkscape:window-width="1920"
     inkscape:window-height="1010"
     inkscape:window-x="-6"
     inkscape:window-y="-6"
     inkscape:window-maximized="1"
     inkscape:current-layer="layer1" />
  <defs
     id="defs324" />
  <g
     inkscape:label="Layer 1"
     inkscape:groupmode="layer"
     id="layer1"
     transform="translate(-11.085813,-14.028401)">
    <path
       id="path10749"
       style="font-size:12.7px;line-height:1.25;font-family:ObelixPro;-inkscape-font-specification:ObelixPro;text-align:center;text-anchor:middle;stroke-width:0.435701"
       d="m 21.323968,19.423521 c -1.09415,2.30553 -2.04502,4.50687 -2.85261,6.604 -0.79457,2.09713 -1.44585,4.07702 -1.95385,5.93969 l -3.39969,-0.17585 1.46538,-4.04446 -1.66077,-3.67323 -1.66077,-3.71231 3.84908,-1.64123 c 0.0912,0.58615 0.20841,1.28303 0.35169,2.09062 0.15631,0.85969 0.39078,1.69985 0.70339,2.52046 l 1.54354,-4.37662 z m -2.01077,-2.88819 c 0,0.59873 -0.49835,1.0841 -1.11309,1.0841 -0.61474,0 -1.11309,-0.48537 -1.11309,-1.0841 0,-0.59874 0.49835,-1.0841 1.11309,-1.0841 0.61474,0 1.11309,0.48536 1.11309,1.0841 z m -3.81483,0.42725 c 0,0.59873 -0.49835,1.0841 -1.11309,1.0841 -0.61474,0 -1.11309,-0.48537 -1.11309,-1.0841 0,-0.59874 0.49835,-1.08411 1.11309,-1.08411 0.61474,0 1.11309,0.48537 1.11309,1.08411 z"
       sodipodi:nodetypes="ccccccccccccssssssssss" />
  </g>
</svg>
